              <svg
                width="32"
                height="32"
                viewBox="0 0 32 32"
                fill="none"
                xmlns="http://www.w3.org/2000/svg"
              >
                <path
                  d="M16.0002 3C21.2586 3.0001 25.8149 6.48434 26.2892 11.1885C26.9965 11.4815 27.4623 12.0531 27.7707 12.4326C27.7979 12.4661 27.824 12.4982 27.8488 12.5283L27.8742 12.5586C28.482 13.2968 28.9732 13.8941 29.3381 14.4121C29.7149 14.9471 30.0006 15.4575 30.1584 16.0352C30.3912 16.8874 30.3912 17.7806 30.1584 18.6328C29.9409 19.4286 29.5034 20.114 29.0666 20.6855C28.8021 21.0316 28.4809 21.4032 28.1984 21.7305C28.044 21.9094 27.9015 22.0757 27.7853 22.2168C27.7731 22.2316 27.7599 22.2463 27.7473 22.2617C27.4444 22.6305 27.0006 23.1684 26.3332 23.46V23.7334C26.3331 26.8387 23.2781 28.9999 20.0002 29H17.3332C16.7809 28.9999 16.3332 28.5523 16.3332 28C16.3332 27.4477 16.7809 27.0001 17.3332 27H20.0002C22.613 26.9999 24.3331 25.3408 24.3332 23.7334V23.4609C24.1249 23.3814 23.9145 23.2879 23.6994 23.1895C23.6623 23.1725 23.6246 23.1557 23.5871 23.1387C23.5581 23.1255 23.5291 23.1118 23.5002 23.0986C23.1367 22.9338 22.7803 22.7724 22.4963 22.5254C21.6659 21.8032 21.6657 20.8501 21.6662 20.2988L21.6662 14.3682C21.6657 13.8168 21.666 12.8637 22.4963 12.1416C22.7803 11.8947 23.1367 11.7332 23.5002 11.5684C23.5291 11.5552 23.5581 11.5415 23.5871 11.5283C23.6245 11.5113 23.6623 11.4945 23.6994 11.4775C23.8961 11.3875 24.0889 11.3017 24.2795 11.2266C23.8249 7.83195 20.4205 5.0001 16.0002 5C11.5797 5 8.17442 7.83186 7.71991 11.2266C7.91079 11.3018 8.10401 11.3874 8.30096 11.4775C8.33812 11.4945 8.37575 11.5112 8.41327 11.5283C8.44232 11.5416 8.47119 11.5552 8.50018 11.5684C8.86375 11.7332 9.22 11.8945 9.50409 12.1416C10.3344 12.8637 10.3337 13.8168 10.3332 14.3682V20.2988C10.3337 20.8501 10.3344 21.8032 9.50409 22.5254C9.22002 22.7724 8.86374 22.9338 8.50018 23.0986C8.47121 23.1118 8.4423 23.1254 8.41327 23.1387C8.37578 23.1557 8.3381 23.1725 8.30096 23.1895C7.81716 23.4109 7.36181 23.6196 6.88495 23.6582C5.49151 23.7709 4.71068 22.8201 4.25214 22.2617C4.23956 22.2464 4.22712 22.2315 4.21503 22.2168C4.09882 22.0756 3.95547 21.9095 3.80096 21.7305C3.51858 21.4032 3.19819 21.0315 2.93378 20.6855C2.49697 20.1139 2.0585 19.4287 1.841 18.6328C1.60819 17.7806 1.60826 16.8874 1.841 16.0352C1.9988 15.4575 2.28444 14.9471 2.66132 14.4121C3.02628 13.894 3.51822 13.297 4.12616 12.5586L4.15057 12.5283C4.17542 12.4981 4.20146 12.4661 4.2287 12.4326C4.53699 12.0532 5.00311 11.4816 5.71014 11.1885C6.18448 6.48424 10.7417 3 16.0002 3ZM6.72382 13.0029C6.55863 12.9896 6.45293 13.0267 6.32147 13.125C6.14332 13.2583 5.97567 13.4583 5.69452 13.7998C5.0561 14.5752 4.61262 15.1151 4.29608 15.5645C3.98681 16.0035 3.84304 16.2969 3.77069 16.5615C3.63211 17.0688 3.63211 17.5982 3.77069 18.1055C3.88891 18.538 4.14922 18.982 4.52264 19.4707C4.76279 19.785 4.99487 20.0528 5.24042 20.3359C5.4051 20.5258 5.57583 20.7229 5.75897 20.9453C6.01889 21.261 6.18098 21.4431 6.34198 21.5576C6.46116 21.6424 6.56226 21.6781 6.72382 21.665C6.80327 21.6586 6.91394 21.6236 7.58417 21.3184C8.09482 21.0858 8.15706 21.0466 8.19159 21.0166C8.25129 20.9647 8.27615 20.9215 8.29608 20.8408C8.32546 20.7218 8.33319 20.5634 8.33319 20.2607V14.4062C8.33319 14.1035 8.32547 13.9452 8.29608 13.8262C8.27615 13.7456 8.25126 13.7023 8.19159 13.6504C8.15704 13.6204 8.09441 13.581 7.58417 13.3486C6.91411 13.0434 6.80326 13.0094 6.72382 13.0029ZM25.2766 13.0029C25.1971 13.0094 25.0869 13.0431 24.4162 13.3486C23.9071 13.5805 23.8434 13.6204 23.8088 13.6504C23.7491 13.7023 23.7242 13.7456 23.7043 13.8262C23.6749 13.9452 23.6662 14.1035 23.6662 14.4063L23.6662 20.2607C23.6662 20.5635 23.6749 20.7218 23.7043 20.8408C23.7242 20.9215 23.7491 20.9647 23.8088 21.0166C23.8434 21.0466 23.9067 21.0863 24.4162 21.3184C25.087 21.6239 25.1971 21.6586 25.2766 21.665C25.4381 21.6781 25.5392 21.6424 25.6584 21.5576C25.8194 21.4431 25.9815 21.261 26.2414 20.9453C26.4245 20.7229 26.5953 20.5258 26.7599 20.3359C27.0054 20.0529 27.2376 19.7849 27.4777 19.4707C27.8511 18.9821 28.1115 18.538 28.2297 18.1055C28.3683 17.5982 28.3683 17.0688 28.2297 16.5615C28.1573 16.2968 28.0127 16.0037 27.7033 15.5645C27.3868 15.1151 26.9433 14.5753 26.3049 13.7998C26.0239 13.4585 25.857 13.2583 25.6789 13.125C25.5474 13.0266 25.4417 12.9896 25.2766 13.0029Z"
                  fill="#1F4D42"
                />
              </svg>
