              <svg
                width="32"
                height="32"
                viewBox="0 0 32 32"
                fill="none"
                xmlns="http://www.w3.org/2000/svg"
              >
                <path
                  d="M15.9998 1.66699C20.2637 1.66699 23.7772 4.86926 24.2713 9H25.953C26.6091 8.99992 27.2069 8.99941 27.6854 9.06934C28.2116 9.14627 28.7726 9.33082 29.1903 9.84082C29.6033 10.3452 29.6801 10.9297 29.6649 11.4609C29.6508 11.9518 29.5505 12.553 29.4383 13.2217L29.0565 15.499C28.9651 16.0436 28.4487 16.4106 27.9041 16.3193C27.3597 16.2278 26.9925 15.7125 27.0838 15.168L27.4549 12.9541C27.5811 12.2013 27.6562 11.7391 27.6659 11.4033C27.6703 11.2474 27.6578 11.1661 27.6483 11.1279C27.6462 11.1195 27.6446 11.1137 27.6434 11.1104C27.6419 11.1096 27.6397 11.1084 27.6375 11.1074C27.6104 11.0949 27.5418 11.0701 27.3963 11.0488C27.08 11.0026 26.6311 11 25.8856 11L6.11411 11C5.36867 11 4.91967 11.0026 4.60336 11.0488C4.45864 11.07 4.39043 11.0948 4.36313 11.1074C4.36093 11.1084 4.35881 11.1096 4.35727 11.1104C4.35607 11.1137 4.35357 11.1193 4.35141 11.1279C4.34185 11.1661 4.32936 11.2475 4.33383 11.4033C4.34348 11.7391 4.41954 12.2012 4.54575 12.9541L6.15024 22.5273C6.42031 24.1384 6.60972 25.2576 6.85727 26.0967C7.09755 26.9112 7.35992 27.3403 7.702 27.6367C8.04117 27.9306 8.48838 28.1199 9.29868 28.2236C10.1388 28.3312 11.2375 28.333 12.8289 28.333H14.6668C15.2189 28.3331 15.6667 28.7809 15.6668 29.333C15.6668 29.8852 15.2191 30.3329 14.6668 30.333H12.7616C11.2537 30.333 10.0266 30.3337 9.04477 30.208C8.01836 30.0766 7.13909 29.7953 6.39243 29.1484C5.64904 28.5043 5.23633 27.6697 4.9393 26.6631C4.65342 25.694 4.44517 24.4542 4.18832 22.9219L2.57309 13.2852C2.56954 13.264 2.56588 13.2427 2.56235 13.2217C2.45018 12.553 2.34891 11.9518 2.33481 11.4609C2.31955 10.9296 2.39726 10.3453 2.81039 9.84082C3.22805 9.33095 3.78816 9.14627 4.3143 9.06934C4.7929 8.99937 5.39142 8.99992 6.0477 9H7.72836C8.2225 4.86929 11.7361 1.66708 15.9998 1.66699ZM22.6649 17.667C23.7338 17.6671 24.593 18.0117 25.2938 18.3564C25.5316 18.4734 25.7376 18.5816 25.9247 18.6797C26.3382 18.8964 26.6606 19.0653 27.035 19.1787L27.0614 19.1875C27.3011 19.2601 27.5245 19.3276 27.6991 19.3926C27.8488 19.4483 28.1404 19.5606 28.367 19.7998C28.567 20.0109 28.6618 20.2425 28.7157 20.4219C28.76 20.5696 28.7919 20.7399 28.8182 20.8789C28.82 20.8883 28.8214 20.8981 28.8231 20.9072C29.5663 24.8225 27.9296 28.6082 23.9129 30.0693C23.9022 30.0732 23.8914 30.0772 23.8807 30.0811C23.5165 30.2137 23.1866 30.333 22.6659 30.333C22.1455 30.3329 21.8161 30.2136 21.452 30.0811C21.4413 30.0772 21.4305 30.0732 21.4198 30.0693C17.403 28.6083 15.7646 24.8229 16.5077 20.9072C16.5094 20.8981 16.5108 20.8883 16.5125 20.8789C16.5389 20.7399 16.5707 20.5696 16.6151 20.4219C16.669 20.2425 16.7638 20.0109 16.9637 19.7998C17.1904 19.5605 17.482 19.4483 17.6317 19.3926C17.8061 19.3277 18.0289 19.2601 18.2684 19.1875C18.2774 19.1848 18.2867 19.1814 18.2957 19.1787C18.67 19.0653 18.9919 18.8964 19.4051 18.6797C19.5922 18.5816 19.7981 18.4735 20.036 18.3564C20.7366 18.0116 21.5958 17.667 22.6649 17.667ZM22.6649 19.667C22.0454 19.667 21.5115 19.8597 20.9188 20.1514C20.7901 20.2147 20.6476 20.2901 20.495 20.3701C20.0194 20.6196 19.4443 20.9205 18.8758 21.0928C18.7077 21.1437 18.5823 21.1826 18.4852 21.2139C18.4813 21.2342 18.477 21.2565 18.4725 21.2803C17.8805 24.3999 19.1598 27.1187 22.1034 28.1895C22.4738 28.3242 22.5149 28.333 22.6659 28.333C22.8172 28.333 22.8586 28.3243 23.2293 28.1895C26.1723 27.1188 27.4505 24.4001 26.8582 21.2803C26.8537 21.2565 26.8494 21.2342 26.8456 21.2139C26.7485 21.1826 26.623 21.1437 26.4549 21.0928C25.8862 20.9205 25.3107 20.6196 24.8348 20.3701C24.6821 20.29 24.5398 20.2148 24.411 20.1514C23.8179 19.8597 23.2843 19.6671 22.6649 19.667ZM15.9998 3.66699C12.8424 3.66708 10.2254 5.97746 9.74594 9L22.2547 9C21.7753 5.97736 19.1574 3.66699 15.9998 3.66699Z"
                  fill="#1F4D42"
                />
              </svg>
