              <svg
                width="32"
                height="32"
                viewBox="0 0 32 32"
                fill="none"
                xmlns="http://www.w3.org/2000/svg"
              >
                <path
                  d="M16 1.66699C23.9154 1.66699 30.3398 8.08326 30.3398 16C30.3398 17.301 30.2117 18.6078 29.5752 19.6562C28.8931 20.7797 27.7479 21.4268 26.1416 21.6562C24.5108 21.8893 23.053 21.8994 21.9121 21.8994C20.723 21.8994 19.9657 21.906 19.3848 22.0762C18.9127 22.2145 18.5526 22.4642 18.2275 23.1143C17.9667 23.6362 17.9799 23.9774 18.0557 24.251C18.1265 24.5063 18.2618 24.7508 18.4639 25.0625L18.6904 25.4023C19.1015 26.0122 19.667 26.8507 19.667 28C19.667 28.5518 19.5193 29.0644 19.1758 29.4766C18.8418 29.8772 18.4073 30.0801 18.0234 30.1875C17.4314 30.3531 16.7131 30.343 16.2334 30.3359C16.1472 30.3347 16.0687 30.333 16 30.333C8.08391 30.333 1.66699 23.916 1.66699 16C1.66699 8.08392 8.08392 1.66699 16 1.66699ZM16 3.66699C9.18849 3.66699 3.66699 9.18849 3.66699 16C3.66699 22.8115 9.18849 28.333 16 28.333C16.1196 28.333 16.2289 28.3347 16.333 28.3359C16.5134 28.3381 16.6793 28.3402 16.8613 28.335C17.134 28.3271 17.3373 28.3028 17.4844 28.2617C17.5905 28.232 17.6304 28.2041 17.6396 28.1963C17.6482 28.1786 17.667 28.1234 17.667 28C17.667 27.5273 17.4579 27.1521 17.0303 26.5176C17.0153 26.4954 17 26.4724 16.9844 26.4492C16.7019 26.0315 16.3162 25.4611 16.1289 24.7861C15.9128 24.0069 15.9696 23.1576 16.4385 22.2197C17.0023 21.0923 17.7964 20.4571 18.8232 20.1562C19.7046 19.8981 20.743 19.899 21.7822 19.8994C21.8254 19.8994 21.8689 19.8994 21.9121 19.8994C23.0428 19.8994 24.3786 19.8882 25.8584 19.6768C27.0533 19.5061 27.5786 19.0918 27.8662 18.6182C28.1992 18.0695 28.3398 17.2431 28.3398 16C28.3398 9.18914 22.8121 3.66699 16 3.66699ZM9.00391 18.7119C9.71568 18.5233 10.4452 18.9474 10.6338 19.6592C10.8222 20.3709 10.3982 21.1005 9.68652 21.2891L9.6748 21.292C8.9631 21.4804 8.23353 21.0564 8.04492 20.3447C7.85641 19.633 8.28044 18.9035 8.99219 18.7148L9.00391 18.7119ZM22 9.66699C23.6569 9.66699 25 11.0101 25 12.667C24.9998 14.3237 23.6567 15.667 22 15.667C20.3433 15.667 19.0002 14.3237 19 12.667C19 11.0101 20.3431 9.66699 22 9.66699ZM12.667 8.33301C14.3236 8.33318 15.6668 9.67641 15.667 11.333C15.667 12.9898 14.3237 14.3328 12.667 14.333C11.0101 14.333 9.66699 12.9899 9.66699 11.333C9.66717 9.6763 11.0102 8.33301 12.667 8.33301ZM22 11.667C21.4477 11.667 21 12.1147 21 12.667C21.0002 13.2191 21.4478 13.667 22 13.667C22.5522 13.667 22.9998 13.2191 23 12.667C23 12.1147 22.5523 11.667 22 11.667ZM12.667 10.333C12.1148 10.333 11.6672 10.7809 11.667 11.333C11.667 11.8853 12.1147 12.333 12.667 12.333C13.2191 12.3328 13.667 11.8852 13.667 11.333C13.6668 10.781 13.219 10.3332 12.667 10.333Z"
                  fill="#1F4D42"
                />
              </svg>
