                        <svg width="32" height="32" viewBox="0 0 32 32" fill="none"
                            xmlns="http://www.w3.org/2000/svg">
                            <path fill-rule="evenodd" clip-rule="evenodd"
                                d="M5.52698 4.47305C9.50161 2.03501 13.0672 3.00667 15.2213 4.62432C15.5757 4.89045 15.8189 5.07258 15.9999 5.19557C16.181 5.07258 16.4242 4.89045 16.7786 4.62432C18.9326 3.00667 22.4983 2.03501 26.4729 4.47305C29.2212 6.15887 30.7676 9.68031 30.225 13.7263C29.6797 17.7919 27.0483 22.3901 21.4755 26.5148C21.4289 26.5493 21.3826 26.5836 21.3368 26.6175C19.4016 28.0508 18.12 28.9999 15.9999 28.9999C13.8798 28.9999 12.5983 28.0508 10.6631 26.6176C10.6172 26.5836 10.571 26.5493 10.5244 26.5148C4.95157 22.3901 2.32012 17.7919 1.77486 13.7263C1.23221 9.68031 2.77865 6.15887 5.52698 4.47305ZM15.7909 5.32443C15.7867 5.32637 15.7874 5.32574 15.7928 5.32358C15.7921 5.3239 15.7915 5.32419 15.7909 5.32443ZM16.2071 5.32357C16.2124 5.32573 16.2132 5.32637 16.2089 5.32443C16.2084 5.32419 16.2078 5.3239 16.2071 5.32357ZM14.0203 6.22357C12.4249 5.02548 9.74915 4.22945 6.57272 6.17788C4.62854 7.37043 3.29784 10.0361 3.75711 13.4605C4.21376 16.8653 6.46329 21.0207 11.7142 24.9073C13.8238 26.4687 14.5938 26.9999 15.9999 26.9999C17.4061 26.9999 18.1761 26.4687 20.2856 24.9073C25.5366 21.0207 27.7861 16.8653 28.2427 13.4605C28.702 10.0361 27.3713 7.37043 25.4271 6.17788C22.2507 4.22945 19.5749 5.02548 17.9796 6.22357L17.9517 6.24451C17.5912 6.51527 17.2815 6.74783 17.0338 6.91001C16.905 6.9943 16.7625 7.08013 16.6145 7.14699C16.4741 7.21045 16.2584 7.28983 15.9999 7.28983C15.7415 7.28983 15.5258 7.21045 15.3853 7.14699C15.2374 7.08013 15.0948 6.9943 14.9661 6.91001C14.7183 6.74783 14.4087 6.51524 14.0481 6.24447L14.0203 6.22357Z"
                                fill="#1F4D42" />
                        </svg>
