              <svg
                width="32"
                height="32"
                viewBox="0 0 32 32"
                fill="none"
                xmlns="http://www.w3.org/2000/svg"
              >
                <path
                  fill-rule="evenodd"
                  clip-rule="evenodd"
                  d="M16.8784 4.57823C18.1264 4.98374 19.1534 5.85901 19.7554 7.00008H21.8112C22.7393 7.00008 23.5094 7.00005 24.1438 7.0641C24.8118 7.13155 25.41 7.27593 25.9746 7.61318C26.5393 7.95045 26.95 8.4087 27.3261 8.9649C27.6322 9.41755 27.9442 9.98046 28.3042 10.6466L28.4884 10.9883L30.2061 14.1784C30.2461 14.2497 30.2776 14.3265 30.2993 14.4073C30.3241 14.4993 30.3352 14.5929 30.3335 14.6856V17.4053C30.3335 18.9156 30.3335 20.1498 30.2024 21.1244C30.0654 22.1429 29.769 23.0261 29.0641 23.731C28.3106 24.4844 27.3484 24.775 26.2225 24.8982C25.822 26.489 24.3818 27.6667 22.6666 27.6667C20.9882 27.6667 19.5733 26.5392 19.138 25.0002H12.862C12.4266 26.5392 11.0116 27.6667 9.33329 27.6667C7.61811 27.6667 6.17799 26.489 5.77743 24.8982C4.65161 24.775 3.68924 24.4844 2.93583 23.731C2.00135 22.7965 1.77891 21.5405 1.7046 20.05C1.67711 19.4984 2.10197 19.0289 2.65357 19.0014C3.20517 18.974 3.67463 19.3988 3.70212 19.9504C3.7736 21.3845 3.9862 21.9529 4.35004 22.3168C4.62808 22.5948 5.0256 22.7845 5.83753 22.8905C6.30775 21.4078 7.69505 20.3334 9.33329 20.3334C11.0117 20.3334 12.4267 21.4612 12.862 23.0002H19.138C19.5732 21.4612 20.9882 20.3334 22.6666 20.3334C24.3049 20.3334 25.6922 21.4078 26.1624 22.8905C26.9744 22.7845 27.3718 22.5948 27.6498 22.3168C27.9213 22.0454 28.113 21.6546 28.2202 20.8578C28.3312 20.0322 28.3333 18.9332 28.3333 17.3336V15.6669H22.9102C22.0718 15.6676 21.423 15.6681 20.8669 15.4874C19.7506 15.1248 18.8754 14.2496 18.5128 13.1332C18.3321 12.5771 18.3325 11.9283 18.3332 11.0899L18.3333 10.9335C18.3333 9.36666 18.3209 8.82039 18.1865 8.40646C17.8897 7.49315 17.1737 6.7771 16.2604 6.48034C15.9016 6.36378 15.4434 6.33897 14.3077 6.33443L2.66663 6.33351C2.11435 6.33351 1.66663 5.88579 1.66663 5.33351C1.66663 4.78123 2.11435 4.33341 2.66663 4.33341H13.9186C15.228 4.33295 16.1224 4.33259 16.8784 4.57823ZM9.33329 22.3334C8.41281 22.3334 7.66663 23.0796 7.66663 24.0001C7.66663 24.9206 8.41281 25.6668 9.33329 25.6668C10.2538 25.6668 11 24.9206 11 24.0001C11 23.0796 10.2538 22.3334 9.33329 22.3334ZM22.6666 22.3334C21.7461 22.3334 21 23.0796 21 24.0001C21 24.9206 21.7461 25.6668 22.6666 25.6668C23.5872 25.6668 24.3333 24.9206 24.3333 24.0001C24.3333 23.0796 23.5872 22.3334 22.6666 22.3334ZM22.376 9.00081L20.2992 9.00009C20.3338 9.49619 20.3336 10.0658 20.3333 10.7482L20.3343 11.3753C20.3385 12.0937 20.3563 12.3349 20.4149 12.5152C20.5797 13.0226 20.9776 13.4204 21.4849 13.5853C21.698 13.6545 21.9961 13.6669 23.0666 13.6669H27.6592L26.7509 11.9802C26.2814 11.1083 25.9633 10.5199 25.6693 10.0852C25.3881 9.66925 25.174 9.46457 24.949 9.33022C24.7241 9.19586 24.4425 9.10443 23.9429 9.05398C23.5368 9.01297 23.0419 9.00315 22.376 9.00081ZM2.66663 9.66675C2.11435 9.66675 1.66663 10.1145 1.66663 10.6668C1.66663 11.219 2.11435 11.6668 2.66663 11.6668H10.6666C11.2189 11.6668 11.6666 11.219 11.6666 10.6668C11.6666 10.1145 11.2189 9.66675 10.6666 9.66675H2.66663ZM1.66663 14.6668C1.66663 14.1145 2.11435 13.6668 2.66663 13.6668H7.99996C8.55224 13.6668 8.99996 14.1145 8.99996 14.6668C8.99996 15.219 8.55224 15.6668 7.99996 15.6668H2.66663C2.11435 15.6668 1.66663 15.219 1.66663 14.6668Z"
                  fill="#1F4D42"
                />
              </svg>
