              <svg
                width="32"
                height="32"
                viewBox="0 0 32 32"
                fill="none"
                xmlns="http://www.w3.org/2000/svg"
              >
                <path
                  d="M14.667 1.66699C21.8465 1.66717 27.667 7.4874 27.667 14.667C27.6669 17.8967 26.4857 20.8486 24.5361 23.1221L30.04 28.626C30.4306 29.0165 30.4306 29.6495 30.04 30.04C29.6495 30.4306 29.0165 30.4306 28.626 30.04L23.1221 24.5361C20.8486 26.4857 17.8967 27.6669 14.667 27.667C7.4874 27.667 1.66717 21.8465 1.66699 14.667C1.66699 7.48729 7.48729 1.66699 14.667 1.66699ZM14.667 3.66699C8.59186 3.66699 3.66699 8.59186 3.66699 14.667C3.66717 20.742 8.59197 25.667 14.667 25.667C20.7419 25.6668 25.6668 20.7419 25.667 14.667C25.667 8.59197 20.742 3.66717 14.667 3.66699Z"
                  fill="#1F4D42"
                />
              </svg>
