<svg width="48" height="48" viewBox="0 0 48 48" fill="none" xmlns="http://www.w3.org/2000/svg">
<rect width="48" height="48" rx="12" fill="#EDF0EE"/>
<g clip-path="url(#clip0_597_1775)">
<path d="M13.2716 14.0854C13.7087 14.0562 14.0551 13.7073 14.0839 13.2731C14.1815 11.8159 14.4714 10.4217 13.5457 9.49593C12.4109 8.36118 10.6174 8.91737 10.3504 10.3518C8.90925 10.6198 8.36638 12.419 9.49444 13.5472C10.4198 14.4724 11.8123 14.1829 13.2716 14.0854ZM10.8495 11.5469C11.2581 11.6121 11.6109 11.2587 11.5454 10.8508C11.4353 10.1653 12.1763 9.84456 12.6866 10.355C13.1074 10.7757 12.9924 11.5718 12.8929 12.8944C11.6017 12.9914 10.7794 13.1141 10.3536 12.6881C9.84244 12.1771 10.1633 11.437 10.8495 11.5469Z" fill="#323935"/>
<path d="M12.5918 16.3532C11.9728 16.9722 12.0563 17.8126 12.1257 18.682C12.1645 19.1664 12.1369 19.4039 12.3917 19.6584C12.5277 19.7945 12.7084 19.8765 12.9001 19.8892C13.5667 19.9339 14.1854 19.9924 14.5541 19.9579C16.1224 19.811 16.6257 18.178 15.7445 17.2967C15.5689 17.1211 15.355 16.9973 15.1177 16.9325C14.8188 15.8383 13.4398 15.5052 12.5918 16.3532ZM13.9488 17.4053C13.8832 17.814 14.2372 18.1669 14.645 18.1012C14.9671 18.0492 15.0634 18.3735 14.8378 18.5991C14.602 18.835 13.9759 18.7537 13.3461 18.7039C13.3429 18.663 13.3397 18.6232 13.3367 18.5847C13.3055 18.194 13.2786 17.8567 13.3018 17.6092C13.3243 17.3684 13.3898 17.2734 13.451 17.2123C13.6833 16.9798 13.999 17.0913 13.9488 17.4053Z" fill="#323935"/>
<path d="M36.5822 10.3521C36.3133 8.9062 34.5112 8.37195 33.3867 9.49621C32.4683 10.415 32.7492 11.788 32.8486 13.2726C32.8769 13.702 33.2188 14.0561 33.661 14.0856C34.5719 14.1465 35.329 14.244 35.9709 14.1838C36.5877 14.1261 37.0676 13.9179 37.438 13.5475C38.5717 12.4139 38.0176 10.6191 36.5822 10.3521ZM36.579 12.6883C36.1576 13.1098 35.3577 12.9936 34.0397 12.8946C33.9484 11.6777 33.8099 10.7913 34.2459 10.3553C34.7564 9.84489 35.4975 10.1658 35.3872 10.8511C35.3217 11.2595 35.675 11.6125 36.0831 11.5471C36.7671 11.4376 37.091 12.1763 36.579 12.6883Z" fill="#323935"/>
<path d="M33.5654 19.925C34.0466 19.8865 34.2855 19.9145 34.5408 19.6593L34.541 19.6592H34.541C34.6772 19.523 34.7591 19.3422 34.7718 19.1507C34.8408 18.1219 35.0587 17.0719 34.3408 16.3539C33.4577 15.4709 32.1001 15.8897 31.8151 16.9332C30.724 17.2309 30.3847 18.6079 31.2357 19.4589C31.8543 20.0777 32.6959 19.9944 33.5654 19.925ZM32.2876 18.1019C32.6953 18.1676 33.0493 17.8146 32.9838 17.4061C32.9335 17.0911 33.2499 16.9811 33.4816 17.2129C33.7151 17.4464 33.6385 18.0419 33.5865 18.7045C33.2255 18.7331 32.7793 18.7759 32.4918 18.7489C32.2508 18.7264 32.1559 18.6609 32.0948 18.5997C31.8686 18.3737 31.9646 18.05 32.2876 18.1019Z" fill="#323935"/>
<path d="M27.1106 8.79004C27.5013 8.79004 27.8186 9.10634 27.8186 9.49707V12.6729C28.645 13.3532 29.1741 14.3829 29.1741 15.5352C29.174 16.5601 28.7537 17.5598 28.0696 18.2754C29.1381 19.0697 29.9659 20.1894 30.3977 21.5264L35.0735 36.0078C35.2205 36.4629 34.8818 36.9324 34.4006 36.9326C34.1896 36.9326 34.0421 36.9744 33.9124 37.0449C33.7785 37.1177 33.659 37.2228 33.5032 37.3613C33.1389 37.6851 32.6199 38.1475 31.6663 38.1475C30.7128 38.1474 30.1935 37.6851 29.8293 37.3613C29.6736 37.2229 29.5549 37.1177 29.4211 37.0449C29.2914 36.9743 29.144 36.9326 28.9329 36.9326C28.7218 36.9326 28.5744 36.9743 28.4446 37.0449C28.3108 37.1177 28.1921 37.2229 28.0364 37.3613C27.6722 37.6851 27.1529 38.1474 26.1995 38.1475C25.4844 38.1475 25.0135 37.8877 24.6692 37.6211L24.3625 37.3613C24.2067 37.2228 24.0872 37.1177 23.9534 37.0449C23.8237 36.9745 23.6768 36.9327 23.4661 36.9326C23.255 36.9326 23.1075 36.9743 22.9778 37.0449C22.9108 37.0814 22.8475 37.126 22.7815 37.1787L22.5686 37.3613C22.2045 37.685 21.6858 38.1474 20.7327 38.1475C20.0177 38.1475 19.5467 37.8876 19.2024 37.6211L18.8958 37.3613C18.7399 37.2228 18.6204 37.1177 18.4866 37.0449C18.3569 36.9744 18.21 36.9327 17.9993 36.9326C17.7882 36.9326 17.6408 36.9743 17.511 37.0449C17.444 37.0814 17.3807 37.126 17.3147 37.1787L17.1018 37.3613C16.7377 37.6851 16.219 38.1473 15.2659 38.1475C14.3124 38.1475 13.7931 37.6851 13.429 37.3613C13.2731 37.2228 13.1536 37.1177 13.0198 37.0449C12.89 36.9744 12.7425 36.9326 12.5315 36.9326C12.0525 36.9323 11.7111 36.4647 11.8586 36.0078L16.5344 21.5264C16.9661 20.1896 17.7934 19.0697 18.8616 18.2754C18.1778 17.5599 17.7581 16.5598 17.7581 15.5352C17.7581 14.383 18.2871 13.3532 19.1135 12.6729V9.49707C19.1135 9.10635 19.4308 8.79004 19.8215 8.79004C20.2122 8.79015 20.5286 9.10642 20.5286 9.49707V11.9482C21.5292 11.6862 22.5946 11.8548 23.4661 12.4141C24.3384 11.8542 25.4039 11.6865 26.4036 11.9482V9.49707C26.4036 9.10642 26.72 8.79016 27.1106 8.79004ZM20.136 19.124C19.0908 19.7483 18.2757 20.7391 17.8811 21.9609L13.4485 35.6875C13.8998 35.8664 14.1694 36.1303 14.4094 36.3428C14.6637 36.5679 14.8827 36.7323 15.2649 36.7324C15.5941 36.7324 15.7883 36.622 15.9875 36.457C16.1788 36.2987 16.3918 36.0728 16.719 35.8711L19.2932 21.6182C19.4637 20.6682 19.7549 19.8238 20.136 19.124ZM23.0842 18.3965C22.5838 18.3965 22.0795 18.7319 21.6477 19.3467C21.2177 19.9589 20.8716 20.8333 20.6858 21.8691L18.219 35.5273C19.034 35.592 19.5016 36.0063 19.8362 36.3037C19.9919 36.4422 20.1106 36.5473 20.2444 36.6201C20.3742 36.6907 20.5216 36.7324 20.7327 36.7324C21.1345 36.7323 21.3632 36.5418 21.6448 36.292C21.9144 36.0528 22.2247 35.7688 22.7581 35.6152V28.3281C22.7581 27.9375 23.0754 27.6211 23.4661 27.6211C23.8565 27.6213 24.173 27.9376 24.1731 28.3281V35.6162C24.7107 35.7707 25.02 36.0547 25.2883 36.2939C25.5679 36.5432 25.7951 36.7324 26.1995 36.7324C26.4104 36.7324 26.558 36.6907 26.6877 36.6201C26.8214 36.5473 26.9402 36.4421 27.0959 36.3037L27.386 36.0576C27.6913 35.8186 28.0975 35.5816 28.6887 35.5293L26.2463 21.8682C26.0605 20.8325 25.7144 19.9589 25.2844 19.3467C24.8527 18.7321 24.3492 18.3966 23.8489 18.3965H23.0842ZM26.7942 19.123C27.1758 19.8233 27.4683 20.668 27.6389 21.6191L30.1838 35.8545C30.4236 35.9984 30.6131 36.1645 30.7698 36.3037C30.9255 36.4422 31.0443 36.5473 31.178 36.6201C31.3077 36.6907 31.4552 36.7324 31.6663 36.7324C32.0509 36.7324 32.2686 36.5676 32.5217 36.3428C32.7607 36.1305 33.0297 35.8672 33.4827 35.6875L29.051 21.9609C28.6562 20.7384 27.8403 19.7472 26.7942 19.123ZM27.76 15.5352C27.76 13.5622 25.4075 12.5102 23.9377 13.8262C23.6691 14.0665 23.263 14.0665 22.9944 13.8262C21.5255 12.511 19.1731 13.5613 19.1731 15.5352C19.1732 16.2971 19.5714 17.0857 20.1477 17.5303C20.9586 17.1764 21.8494 16.9815 22.7776 16.9814C24.2681 16.9814 25.3348 16.8957 26.7844 17.5303C27.3607 17.0857 27.7599 16.2972 27.76 15.5352Z" fill="#323935" stroke="#323935" stroke-width="0.2"/>
<path d="M23.4663 24.0752C23.1308 24.0752 22.8589 24.3472 22.8589 24.6826V25.8976C22.8589 26.233 23.1308 26.505 23.4663 26.505C23.8018 26.505 24.0738 26.233 24.0738 25.8976V24.6826C24.0738 24.3472 23.8018 24.0752 23.4663 24.0752Z" fill="#323935"/>
</g>
<defs>
<clipPath id="clip0_597_1775">
<rect width="32" height="32" fill="white" transform="translate(8 8)"/>
</clipPath>
</defs>
</svg>
