<svg width="11" height="12" viewBox="0 0 11 12" fill="none" xmlns="http://www.w3.org/2000/svg">
<g clip-path="url(#clip0_597_1792)">
<path d="M6.6822 10.6305C6.4906 11.0553 6.36395 11.5163 6.31543 11.9998L10.37 11.1379C10.5616 10.7132 10.6881 10.252 10.7368 9.76855L6.6822 10.6305Z" fill="#767A78"/>
<path d="M10.3698 8.55594C10.5614 8.1312 10.6881 7.67007 10.7366 7.18659L7.57823 7.85832V6.56701L10.3698 5.97378C10.5613 5.54904 10.688 5.08791 10.7365 4.60443L7.57814 5.27559V0.631619C7.09418 0.90335 6.66437 1.26505 6.31499 1.6917V5.54417L5.05185 5.81265V0C4.56789 0.271635 4.13809 0.633434 3.78871 1.06008V6.08104L0.962419 6.68162C0.770822 7.10636 0.644078 7.56749 0.595463 8.05097L3.78871 7.37236V8.99854L0.366521 9.72577C0.174924 10.1505 0.0482758 10.6116 -0.000244141 11.0951L3.58183 10.3339C3.87343 10.2732 4.12405 10.1008 4.28699 9.86359L4.94392 8.88966V8.88947C5.01212 8.7887 5.05185 8.66721 5.05185 8.53636V7.10388L6.31499 6.83539V9.41803L10.3698 8.55575L10.3698 8.55594Z" fill="#767A78"/>
</g>
<defs>
<clipPath id="clip0_597_1792">
<rect width="10.7369" height="12" fill="white"/>
</clipPath>
</defs>
</svg>
