<svg width="151" height="70" viewBox="0 0 151 70" fill="none" xmlns="http://www.w3.org/2000/svg">
<g clip-path="url(#clip0_2563_7171)">
<path d="M126.335 61.054C127.018 61.054 127.506 60.6088 127.506 59.9548C127.506 59.3009 127.018 58.8278 126.335 58.8278C125.652 58.8278 125.164 59.287 125.164 59.9548C125.164 60.6088 125.652 61.054 126.335 61.054Z" fill="#334E41"/>
<path d="M9.16023 68.1359L5.70244 59.1615L4.74039 59.3563L1.05951 68.5255C0.920082 68.8733 0.613342 69.2073 -0.000137329 69.2768V69.8195H3.09515L3.19275 69.2768L1.82636 69.1099L2.71869 66.7863L2.9836 66.6054H6.35774L7.09671 68.6368C7.27796 69.1099 6.90151 69.2629 6.46929 69.2629V69.889C6.46929 69.889 8.81166 69.8195 9.56457 69.8195H10.2199L10.2756 69.3186C9.67611 69.2212 9.42514 68.8455 9.16023 68.1359ZM3.12303 65.7149L4.65673 61.7217C4.75433 62.0417 4.92164 62.5982 5.06107 62.9322L6.06495 65.7149H3.12303Z" fill="#334E41"/>
<path d="M15.4344 68.2892V59.8297C15.4344 58.6192 15.5877 58.0348 15.5877 58.0348L15.5459 57.9931C15.5459 57.9931 14.8906 58.2853 12.353 58.8001V59.301H12.9386C13.3987 59.301 13.4127 59.7045 13.4127 60.3445V68.2892C13.4127 68.8597 13.1478 69.2354 12.5064 69.3188V69.8615L16.5498 69.7641L16.6056 69.291L15.3368 69.1519C15.3507 69.1519 15.4344 68.7623 15.4344 68.2892Z" fill="#334E41"/>
<path d="M22.0569 68.2892V59.8297C22.0569 58.6192 22.2103 58.0348 22.2103 58.0348L22.1684 57.9931C22.1684 57.9931 21.5131 58.2853 18.9756 58.8001V59.301H19.5611C20.0213 59.301 20.0352 59.7045 20.0352 60.3445V68.2892C20.0352 68.8597 19.7703 69.2354 19.1289 69.3188V69.8615L23.1723 69.7641L23.2281 69.291L21.9593 69.1519C21.9732 69.1519 22.0569 68.7623 22.0569 68.2892Z" fill="#334E41"/>
<path d="M33.0718 68.2337V64.0735C33.0718 62.863 33.2112 62.4178 33.2112 62.4178L33.1694 62.376C33.1694 62.376 32.779 62.5291 30.1856 62.9882V63.5309H30.576C31.0362 63.5309 31.0501 63.9204 31.0501 64.6022V67.9833C31.0501 67.9833 30.2693 68.7068 29.4606 68.7068C28.9447 68.7068 28.5543 68.4146 28.5543 67.2876V64.0735C28.5543 62.863 28.6938 62.4178 28.6938 62.4178L28.6519 62.376C28.6519 62.376 28.2894 62.5291 25.5845 63.0021V63.5169H26.0586C26.5187 63.5169 26.5327 63.9065 26.5327 64.5883V67.8719C26.5327 69.3885 27.3832 70.0007 28.5265 70.0007C30.088 70.0007 31.1616 68.3867 31.1616 68.3867V69.0407C31.1616 69.4303 31.0501 69.9173 31.0501 69.9173L31.0919 69.9451C31.0919 69.9451 32.1655 69.8059 34.2848 69.6251L34.3266 69.1242H33.9641C33.4343 69.1242 33.0718 69.1242 33.0718 68.2337Z" fill="#334E41"/>
<path d="M41.9812 62.4313C40.7403 62.4313 39.7364 64.1844 39.7364 64.1844C39.82 62.5983 39.9595 62.2643 39.9595 62.2643L39.9176 62.2226C39.9176 62.2226 38.5791 62.7235 36.7247 63.0296V63.5305H37.3522C37.7983 63.5305 37.8262 63.9201 37.8262 64.574V68.3029C37.8262 68.8734 37.5753 69.249 36.9199 69.3325V69.8752L41.1306 69.7778L41.1864 69.3047L39.7643 69.1656C39.7643 69.1656 39.8479 68.776 39.8479 68.3168V64.6018C39.8479 64.6018 40.4614 64.101 40.9773 64.101C41.3677 64.101 41.4513 64.421 41.9672 64.421C42.6086 64.421 42.9711 63.9201 42.9711 63.4192C42.9711 62.9044 42.6504 62.4313 41.9812 62.4313Z" fill="#334E41"/>
<path d="M50.7374 65.5475C51.0581 65.5058 51.7831 65.2414 51.7831 65.2414C51.7134 63.2657 50.3889 62.4309 48.9388 62.4309C46.8892 62.4309 45.3416 64.184 45.3416 66.3406C45.3416 68.219 46.5825 69.986 48.9109 69.986C50.9047 69.986 51.7553 68.3859 51.7553 68.3859L51.56 67.9268C51.56 67.9268 50.8211 68.5529 49.6778 68.5529C48.0604 68.5529 47.4051 67.4537 47.2239 66.2154L47.3633 66.0345L50.7374 65.5475ZM47.2099 65.3249C47.2796 64.1701 47.7816 63.1961 48.6181 63.1961C49.7614 63.1961 49.8033 64.991 49.8033 64.991L47.2099 65.3249Z" fill="#334E41"/>
<path d="M68.3467 68.609C66.0043 68.609 63.9268 66.995 63.9268 64.0592C63.9268 61.8747 65.0144 59.8712 67.538 59.8712C69.0159 59.8712 70.2847 60.4138 70.3544 62H70.9679L71.442 59.5233C70.5914 59.4398 69.0856 59.0781 67.7053 59.0781C63.7735 59.0781 61.7796 62.0139 61.7796 64.6853C61.7796 67.4124 63.8711 69.9864 67.3567 69.9864C70.3544 69.9864 71.6511 67.9133 71.6511 67.9133L71.3862 67.4959C71.3862 67.5237 70.1732 68.609 68.3467 68.609Z" fill="#334E41"/>
<path d="M78.4554 62.4309C75.639 62.4309 74.4957 64.504 74.4957 66.3684C74.4957 68.4694 75.9597 69.9999 78.2602 69.9999C80.9512 69.9999 82.2757 67.9268 82.2757 65.9371C82.2757 63.8918 80.8396 62.4309 78.4554 62.4309ZM78.5112 69.3042C77.2145 69.3042 76.6847 67.4955 76.6847 65.965C76.6847 64.4901 77.1727 63.1265 78.302 63.1265C79.5708 63.1265 80.0728 64.824 80.1007 66.2432C80.1007 67.3563 79.8357 69.3042 78.5112 69.3042Z" fill="#334E41"/>
<path d="M87.9784 68.2892V59.8297C87.9784 58.6192 88.1317 58.0348 88.1317 58.0348L88.0899 57.9931C88.0899 57.9931 87.4346 58.2853 84.897 58.8001V59.301H85.4826C85.9427 59.301 85.9567 59.7045 85.9567 60.3445V68.2892C85.9567 68.8597 85.6918 69.2354 85.0504 69.3188V69.8615L89.0938 69.7641L89.1496 69.291L87.8808 69.1519C87.8808 69.1519 87.9784 68.7623 87.9784 68.2892Z" fill="#334E41"/>
<path d="M94.6013 68.2892V59.8297C94.6013 58.6192 94.7547 58.0348 94.7547 58.0348L94.7128 57.9931C94.7128 57.9931 94.0575 58.2853 91.52 58.8001V59.301H92.1055C92.5657 59.301 92.5796 59.7045 92.5796 60.3445V68.2892C92.5796 68.8597 92.3147 69.2354 91.6733 69.3188V69.8615L95.7167 69.7641L95.7725 69.291L94.5037 69.1519C94.5176 69.1519 94.6013 68.7623 94.6013 68.2892Z" fill="#334E41"/>
<path d="M103.747 65.5475C104.068 65.5058 104.793 65.2414 104.793 65.2414C104.723 63.2657 103.399 62.4309 101.949 62.4309C99.8992 62.4309 98.3515 64.184 98.3515 66.3406C98.3515 68.219 99.5924 69.986 101.921 69.986C103.915 69.986 104.765 68.3859 104.765 68.3859L104.57 67.9268C104.57 67.9268 103.831 68.5529 102.688 68.5529C101.07 68.5529 100.415 67.4537 100.234 66.2154L100.373 66.0345L103.747 65.5475ZM100.206 65.3249C100.276 64.1701 100.778 63.1961 101.614 63.1961C102.757 63.1961 102.799 64.991 102.799 64.991L100.206 65.3249Z" fill="#334E41"/>
<path d="M111.904 68.5672C110.287 68.5672 109.506 67.3289 109.506 65.7288C109.506 64.3374 110.092 63.113 111.165 63.113C112.295 63.113 112.253 64.4627 113.159 64.4627C113.633 64.4627 113.926 64.0731 113.926 63.6835C113.926 62.7374 112.336 62.4174 111.388 62.4174C108.934 62.4174 107.624 64.5183 107.624 66.3967C107.624 68.2472 108.851 69.9864 111.054 69.9864C113.117 69.9864 113.968 68.4698 113.968 68.4698L113.772 68.0246C113.772 68.0246 112.992 68.5672 111.904 68.5672Z" fill="#334E41"/>
<path d="M120.493 68.735C119.67 68.735 119.489 68.1924 119.489 67.2741V63.7678L119.684 63.573H121.608L121.72 62.613H119.461V62.3069C119.461 61.1103 119.6 60.7624 119.6 60.7624L119.558 60.7207L118.192 60.679L117.592 62.4599C117.202 62.8078 116.477 62.9469 116.477 62.9469V63.6287H117.495C117.495 63.6287 117.453 64.1991 117.453 64.6583V67.928C117.453 69.389 118.234 70.0012 119.377 70.0012C121.008 70.0012 122.068 68.7907 122.068 68.7907L121.817 68.3732C121.831 68.3732 121.176 68.735 120.493 68.735Z" fill="#334E41"/>
<path d="M127.478 68.289V64.0592C127.478 62.7791 127.617 62.2643 127.617 62.2643L127.575 62.2226C127.575 62.2226 126.209 62.7096 124.355 63.0018V63.5027H124.982C125.428 63.5027 125.456 63.8922 125.456 64.5462V68.289C125.456 68.8595 125.205 69.2351 124.55 69.3186V69.8612L128.593 69.7638L128.663 69.2908L127.394 69.1516C127.408 69.1516 127.478 68.7621 127.478 68.289Z" fill="#334E41"/>
<path d="M135.188 62.4309C132.372 62.4309 131.228 64.504 131.228 66.3684C131.228 68.4694 132.692 69.9999 134.993 69.9999C137.684 69.9999 139.008 67.9268 139.008 65.9371C139.008 63.8918 137.558 62.4309 135.188 62.4309ZM135.23 69.3042C133.933 69.3042 133.403 67.4955 133.403 65.965C133.403 64.4901 133.891 63.1265 135.021 63.1265C136.29 63.1265 136.792 64.824 136.819 66.2432C136.833 67.3563 136.568 69.3042 135.23 69.3042Z" fill="#334E41"/>
<path d="M149.312 69.1238C149.312 69.1238 149.396 68.7621 149.396 68.289V64.5601C149.396 63.0296 148.615 62.4313 147.514 62.4313C146.217 62.4313 145.255 63.28 144.697 64.0175C144.767 62.6122 144.921 62.2643 144.921 62.2643L144.879 62.2226C144.879 62.2226 143.54 62.7096 141.686 63.0018V63.5027H142.313C142.759 63.5027 142.787 63.8922 142.787 64.5462V68.289C142.787 68.8595 142.536 69.2351 141.881 69.3186V69.8612L145.659 69.7638L145.729 69.2908L144.725 69.1238C144.725 69.1238 144.809 68.7621 144.809 68.289V64.4071C145.311 64.0175 145.966 63.8227 146.482 63.8227C147.096 63.8227 147.36 64.0731 147.36 65.1862V68.3029C147.36 68.8734 147.193 69.249 146.649 69.3325V69.8752L150.512 69.7778L150.581 69.3047L149.312 69.1238Z" fill="#334E41"/>
<path d="M42.7903 0.974852C46.1644 2.53319 49.4828 4.27241 52.5083 6.41512C52.5223 6.42904 52.5502 6.44295 52.5641 6.47078C52.6059 6.55426 52.5781 6.66557 52.4944 6.70731L50.1938 8.02912C50.166 8.04303 50.152 8.07086 50.1241 8.08477C50.0684 8.16825 50.0823 8.29348 50.1799 8.34913C50.3193 8.44653 50.4588 8.5161 50.5842 8.58566C54.2512 10.311 57.3186 11.911 60.3302 14.1512C60.3441 14.1651 60.3441 14.1651 60.3581 14.179C60.372 14.2207 60.3581 14.2625 60.3163 14.2903L58.5316 15.1529C58.5037 15.1669 58.4898 15.1808 58.4758 15.2086C58.434 15.2782 58.4479 15.3617 58.5177 15.4173C63.5231 18.5479 67.9569 22.4437 70.9546 27.5362C70.9824 27.5779 71.0103 27.6057 71.0522 27.6197C71.0661 27.6197 71.0661 27.6197 71.08 27.6197C71.1358 27.6197 71.1916 27.5779 71.1916 27.5223C71.2334 26.8266 71.2195 26.0891 71.1637 25.3378C70.9685 22.8194 70.4108 20.3289 69.5185 17.894C67.6222 12.718 64.7361 7.97346 60.5254 4.60634C55.3387 0.487871 49.3015 -1.0009 42.8181 0.682664C42.7763 0.696578 42.7345 0.724405 42.7205 0.766146C42.6787 0.849629 42.7205 0.947025 42.7903 0.974852Z" fill="#334E41"/>
<path d="M33.295 29.9983C36.6134 27.8695 40.3221 26.1859 44.1982 25.4624C44.2121 25.4624 44.24 25.4624 44.254 25.4624C44.3097 25.4763 44.3516 25.5459 44.3376 25.6016L43.515 28.3147C43.5011 28.3426 43.5011 28.3843 43.515 28.4121C43.5429 28.5095 43.6405 28.5652 43.7381 28.5374C47.7536 27.4103 51.9085 26.506 55.924 26.5477C55.9519 26.5477 55.9798 26.5616 56.0077 26.5755C56.0913 26.6173 56.1192 26.7286 56.0774 26.8121L55.1432 28.44C55.1293 28.4678 55.1293 28.4817 55.1153 28.5095C55.1153 28.6069 55.1711 28.6765 55.2687 28.6904C59.8838 29.0104 65.1262 29.9983 68.8768 32.8784C68.8768 32.8784 68.8908 32.8924 68.9047 32.8924C68.9744 32.9341 69.0581 32.9063 69.0999 32.8367C69.0999 32.8228 69.0999 32.8089 69.0999 32.781C69.0999 32.7532 69.086 32.7254 69.072 32.6976C66.0883 28.3704 61.4035 24.892 56.663 22.471C52.3965 20.3004 47.1262 19.2986 42.4554 20.2726C37.673 21.2883 34.6056 24.1545 33.281 28.8713C33.1834 29.233 33.1137 29.567 33.0858 29.8592C33.0858 29.887 33.0858 29.9148 33.0998 29.9426C33.1556 30.0261 33.2392 30.04 33.295 29.9983Z" fill="#334E41"/>
<path d="M64.0524 36.6634C65.0284 36.7051 65.9208 36.8582 66.7155 37.1364C66.7295 37.1364 66.7295 37.1364 66.7434 37.1364C66.7992 37.1364 66.841 37.0947 66.841 37.053C66.841 36.9973 66.8131 36.9417 66.7295 36.8721C65.9765 36.2877 65.0563 35.759 63.9688 35.3137C60.748 33.978 57.2345 33.4632 53.6512 33.3241C52.1872 33.2684 50.9184 33.3102 49.8588 33.4493C44.1283 34.2006 38.105 37.206 35.1074 42.3402C34.1453 43.982 33.4342 46.1943 33.5876 48.1422C33.5876 48.17 33.6015 48.184 33.6155 48.1979C33.6573 48.2257 33.7131 48.2257 33.741 48.1979C36.655 45.2482 40.0291 42.8133 43.9749 41.5471C43.9889 41.5471 43.9889 41.5471 44.0028 41.5471C44.0586 41.5471 44.1144 41.5888 44.1283 41.6584L44.2398 43.9403C44.2398 43.9681 44.2538 44.0098 44.2677 44.0377C44.3235 44.1351 44.449 44.1629 44.5466 44.1072C46.8332 42.7298 48.8549 41.5888 50.5838 40.6984C52.1454 39.8914 53.7069 39.1679 55.2406 38.5556C58.1407 37.3869 61.0966 36.5521 64.0524 36.6634Z" fill="#334E41"/>
<path d="M79.4036 27.5353C79.4036 27.5909 79.4594 27.6327 79.5152 27.6327C79.5291 27.6327 79.5291 27.6327 79.543 27.6327C79.5849 27.6188 79.6128 27.5909 79.6406 27.5492C82.6244 22.4568 87.0582 18.5609 92.0776 15.4303C92.1473 15.3886 92.1612 15.2912 92.1194 15.2216C92.1054 15.1938 92.0776 15.1799 92.0636 15.166L90.2789 14.3033C90.2371 14.2894 90.2232 14.2337 90.2371 14.192C90.2371 14.1781 90.2511 14.1781 90.265 14.1642C93.2627 11.9101 96.344 10.324 100.011 8.59868C100.136 8.54302 100.276 8.45954 100.415 8.36214C100.499 8.30649 100.527 8.18126 100.471 8.09778C100.457 8.06995 100.429 8.05604 100.401 8.04213L98.1008 6.72032C98.0171 6.67858 97.9893 6.56727 98.0311 6.48379C98.045 6.45596 98.059 6.44205 98.0869 6.42813C101.085 4.27151 104.417 2.53229 107.791 0.973951C107.875 0.932209 107.903 0.848727 107.861 0.765245C107.847 0.723503 107.805 0.695676 107.763 0.681762C101.28 -1.01571 95.2426 0.48697 90.0698 4.63326C85.8591 8.00039 82.973 12.745 81.0767 17.9209C80.1844 20.3558 79.6406 22.8324 79.4315 25.3647C79.3618 26.1022 79.3618 26.8257 79.4036 27.5353Z" fill="#334E41"/>
<path d="M93.918 22.4852C89.1775 24.9062 84.4927 28.3847 81.509 32.7118C81.495 32.7397 81.4811 32.7675 81.4811 32.7953C81.4811 32.8231 81.4811 32.8371 81.4811 32.851C81.5229 32.9205 81.6066 32.9484 81.6763 32.9066C81.6902 32.9066 81.6902 32.8927 81.7042 32.8927C85.4548 30.0126 90.6972 29.0247 95.3123 28.7047C95.4099 28.7047 95.4657 28.6212 95.4657 28.5238C95.4657 28.496 95.4517 28.4821 95.4378 28.4542L94.5036 26.8263C94.4618 26.7428 94.4897 26.6315 94.5733 26.5898C94.6012 26.5759 94.6291 26.562 94.657 26.562C98.6725 26.5202 102.827 27.4385 106.843 28.5516C106.941 28.5795 107.038 28.5238 107.066 28.4264C107.08 28.3986 107.08 28.3568 107.066 28.329L106.243 25.6158C106.229 25.5602 106.257 25.4906 106.327 25.4767C106.341 25.4767 106.355 25.4767 106.383 25.4767C110.259 26.2002 113.968 27.8838 117.286 30.0126C117.342 30.0543 117.425 30.0265 117.467 29.9708C117.481 29.943 117.495 29.9152 117.481 29.8873C117.453 29.5952 117.398 29.2612 117.286 28.8995C115.961 24.1827 112.894 21.3165 108.112 20.3008C103.455 19.3129 98.1705 20.3147 93.918 22.4852Z" fill="#334E41"/>
<path d="M116.965 48.1979C116.979 48.184 116.993 48.1561 116.993 48.1422C117.133 46.1943 116.435 43.982 115.473 42.3402C112.476 37.2199 106.452 34.2146 100.722 33.4493C99.6623 33.3102 98.3935 33.2684 96.9296 33.3241C93.3463 33.4771 89.8327 33.978 86.612 35.3137C85.5244 35.7729 84.6042 36.2877 83.8513 36.8721C83.7676 36.9277 83.7397 36.9973 83.7397 37.053C83.7397 37.1086 83.7955 37.1504 83.8373 37.1364C83.8513 37.1364 83.8513 37.1364 83.8652 37.1364C84.66 36.8582 85.5523 36.7051 86.5283 36.6634C89.4841 36.5382 92.4261 37.373 95.3401 38.5278C96.8877 39.14 98.4354 39.8496 99.997 40.6705C101.726 41.5749 103.734 42.7019 106.034 44.0794C106.132 44.1351 106.257 44.1072 106.313 44.0098C106.327 43.982 106.341 43.9542 106.341 43.9124L106.452 41.6306C106.452 41.561 106.508 41.5193 106.578 41.5193C106.592 41.5193 106.592 41.5193 106.606 41.5193C110.552 42.7854 113.926 45.2064 116.84 48.17C116.882 48.2257 116.937 48.2257 116.965 48.1979Z" fill="#334E41"/>
<path d="M74.0495 13.8585C74.0495 13.8863 74.0356 13.9141 74.0216 13.9419C73.5754 14.5402 73.2966 15.1524 73.1851 15.7786C73.1572 15.9594 73.1293 16.1403 73.1293 16.3212C73.1153 17.1699 73.3942 18.0326 73.9798 18.9231C74.0356 18.9926 74.1332 19.0065 74.2029 18.9648C74.5793 18.6865 74.9139 18.3109 75.2207 17.8239C75.2207 17.8239 75.2486 17.81 75.2625 17.81C75.2765 17.81 75.2765 17.81 75.2765 17.81C75.2904 17.81 75.2904 17.81 75.3043 17.81C75.3322 17.81 75.3462 17.8239 75.3462 17.8239C75.6529 18.3109 75.9875 18.6865 76.364 18.9648C76.364 18.9648 76.364 18.9648 76.3779 18.9648C76.4476 19.0205 76.5452 18.9926 76.601 18.9231C77.1866 18.0326 77.4794 17.1421 77.4515 16.2934C77.4515 16.1264 77.4376 15.9594 77.4097 15.8064C77.2982 15.1664 77.0193 14.5541 76.5731 13.928C76.5592 13.9141 76.5592 13.9002 76.5452 13.8724C78.065 12.3419 79.5011 10.9227 80.8396 9.58695L80.8535 9.57303C80.8675 9.54521 80.8535 9.51738 80.8257 9.50346C80.8117 9.48955 80.7838 9.48955 80.7559 9.48955C78.9434 9.60086 77.4515 10.3383 76.2943 11.7157C76.2943 11.7297 76.2803 11.7297 76.2664 11.7297C76.2524 11.7297 76.2385 11.7157 76.2385 11.7018C76.2664 11.2705 76.2524 10.8531 76.1688 10.4496C76.0991 10.0739 76.0015 9.72608 75.8481 9.37824C75.7226 9.08605 75.5553 8.80778 75.3741 8.5295C75.3601 8.50167 75.3462 8.50167 75.3183 8.50167C75.2904 8.50167 75.2765 8.51559 75.2625 8.5295C75.0813 8.79386 74.9279 9.05822 74.8024 9.3365C74.6351 9.71217 74.5096 10.1157 74.4399 10.5331C74.3841 10.9088 74.3702 11.2844 74.3841 11.6879C74.3841 11.7018 74.3841 11.7018 74.3702 11.7157C74.3562 11.7297 74.3423 11.7297 74.3283 11.7157C73.1711 10.3383 71.6792 9.60086 69.8667 9.48955C69.8388 9.48955 69.8109 9.48955 69.797 9.50346L69.783 9.51738C69.7691 9.53129 69.7691 9.57303 69.783 9.58695C71.1215 10.9227 72.5437 12.3419 74.0495 13.8585Z" fill="#334E41"/>
<path d="M73.7709 19.9385C73.2969 23.4726 71.1776 37.108 65.6563 40.976C65.5587 41.0456 65.5308 41.1569 65.5866 41.2543C66.1722 42.3396 69.6021 48.2112 75.2489 48.2112H75.3325C80.9793 48.2112 84.4092 42.3396 84.9948 41.2543C85.0506 41.1569 85.0227 41.0317 84.9251 40.976C79.4038 37.108 77.2845 23.4726 76.8105 19.9385C76.7826 19.7159 76.4619 19.6741 76.3922 19.8967L75.4998 22.916C75.4301 23.1108 75.1652 23.1108 75.0955 22.916L74.2032 19.9106C74.1056 19.688 73.7988 19.7159 73.7709 19.9385Z" fill="#334E41"/>
<path d="M75.2904 7.0132C75.2904 5.73314 76.3222 4.70352 77.6049 4.70352C76.3222 4.70352 75.2904 3.67391 75.2904 2.39384C75.2904 3.67391 74.2587 4.70352 72.9759 4.70352C74.2587 4.70352 75.2904 5.74705 75.2904 7.0132Z" fill="#334E41"/>
</g>
<defs>
<clipPath id="clip0_2563_7171">
<rect width="150.581" height="70" fill="white"/>
</clipPath>
</defs>
</svg>
